HIERARCHY
ROOT Hips
{
	OFFSET 0.000000 0.000000 0.000000
	CHANNELS 6 Xposition Yposition Zposition Xrotation Yrotation Zrotation
	JOINT LeftUpLeg_virtual
	{
		OFFSET 0.000000 0.000000 0.000000
		CHANNELS 3 Xrotation Yrotation Zrotation
		JOINT LeftUpLeg
		{
			OFFSET 13.026900 -6.336304 -1.092800
			CHANNELS 3 Xrotation Yrotation Zrotation
			JOINT LeftLeg
			{
				OFFSET 0.524474 -46.096886 9.782700
				CHANNELS 3 Xrotation Yrotation Zrotation
				JOINT LeftFoot
				{
					OFFSET -0.524474 -53.427422 -12.948200
					CHANNELS 3 Xrotation Yrotation Zrotation
					JOINT LeftToeBase
					{
						OFFSET 0.192200 -14.009700 16.364100
						CHANNELS 3 Xrotation Yrotation Zrotation
						JOINT LeftToe_End
						{
							OFFSET -1.784700 -0.561700 9.474800
							CHANNELS 3 Xrotation Yrotation Zrotation
							End Site
							{
								OFFSET 0 0 0
							}
						}
					}
				}
			}
		}
	}
	JOINT RightUpLeg_virtual
	{
		OFFSET 0.000000 0.000000 0.000000
		CHANNELS 3 Xrotation Yrotation Zrotation
		JOINT RightUpLeg
		{
			OFFSET -12.883000 -6.336304 -1.092800
			CHANNELS 3 Xrotation Yrotation Zrotation
			JOINT RightLeg
			{
				OFFSET -0.524587 -46.096825 9.782800
				CHANNELS 3 Xrotation Yrotation Zrotation
				JOINT RightFoot
				{
					OFFSET 0.524587 -53.427383 -12.948300
					CHANNELS 3 Xrotation Yrotation Zrotation
					JOINT RightToeBase
					{
						OFFSET -0.192200 -14.009700 16.364100
						CHANNELS 3 Xrotation Yrotation Zrotation
						JOINT RightToe_End
						{
							OFFSET 1.784700 -0.561700 9.474800
							CHANNELS 3 Xrotation Yrotation Zrotation
							End Site
							{
								OFFSET 0 0 0
							}
						}
					}
				}
			}
		}
	}
	JOINT Spine_virtual
	{
		OFFSET 0.000000 0.000000 0.000000
		CHANNELS 3 Xrotation Yrotation Zrotation
		JOINT Spine
		{
			OFFSET 0.072000 7.257294 -0.789700
			CHANNELS 3 Xrotation Yrotation Zrotation
			JOINT Spine1
			{
				OFFSET 0.000000 12.508769 -0.658067
				CHANNELS 3 Xrotation Yrotation Zrotation
				JOINT Spine1_split
				{
					OFFSET 0.000000 12.508769 -0.658067
					CHANNELS 3 Xrotation Yrotation Zrotation
					JOINT Spine2
					{
						OFFSET 0.000000 12.508769 -0.658067
						CHANNELS 3 Xrotation Yrotation Zrotation
						JOINT Neck_virtual
						{
							OFFSET 0.000000 0.000000 0.000000
							CHANNELS 3 Xrotation Yrotation Zrotation
							JOINT Neck
							{
								OFFSET 0.000000 14.033295 7.520400
								CHANNELS 3 Xrotation Yrotation Zrotation
								JOINT Head
								{
									OFFSET 0.000000 8.198502 5.703100
									CHANNELS 3 Xrotation Yrotation Zrotation
									JOINT HeadTop_End
									{
										OFFSET 0.000000 17.760803 13.332701
										CHANNELS 3 Xrotation Yrotation Zrotation
										End Site
										{
											OFFSET 0 0 0
										}
									}
								}
							}
						}
						JOINT LeftShoulder_virtual
						{
							OFFSET 0.000000 0.000000 0.000000
							CHANNELS 3 Xrotation Yrotation Zrotation
							JOINT LeftShoulder
							{
								OFFSET 6.292450 5.785301 -0.669000
								CHANNELS 3 Xrotation Yrotation Zrotation
								JOINT LeftShoulder_split
								{
									OFFSET 6.292450 5.785301 -0.669000
									CHANNELS 3 Xrotation Yrotation Zrotation
									JOINT LeftArm
									{
										OFFSET 13.907140 -6.093903 1.965100
										CHANNELS 3 Xrotation Yrotation Zrotation
										JOINT LeftForeArm
										{
											OFFSET 34.140198 0.000000 0.000000
											CHANNELS 3 Xrotation Yrotation Zrotation
											JOINT LeftHand
											{
												OFFSET 40.960209 0.000000 0.000000
												CHANNELS 3 Xrotation Yrotation Zrotation
												End Site
												{
													OFFSET 0 0 0
												}
											}
										}
									}
								}
							}
						}
						JOINT RightShoulder_virtual
						{
							OFFSET 0.000000 0.000000 0.000000
							CHANNELS 3 Xrotation Yrotation Zrotation
							JOINT RightShoulder
							{
								OFFSET -6.292450 5.785301 -0.669000
								CHANNELS 3 Xrotation Yrotation Zrotation
								JOINT RightShoulder_split
								{
									OFFSET -6.292450 5.785301 -0.669000
									CHANNELS 3 Xrotation Yrotation Zrotation
									JOINT RightArm
									{
										OFFSET -13.907140 -6.093903 1.965100
										CHANNELS 3 Xrotation Yrotation Zrotation
										JOINT RightForeArm
										{
											OFFSET -34.140198 0.000000 0.000000
											CHANNELS 3 Xrotation Yrotation Zrotation
											JOINT RightHand
											{
												OFFSET -40.960209 0.000000 0.000000
												CHANNELS 3 Xrotation Yrotation Zrotation
												End Site
												{
													OFFSET 0 0 0
												}
											}
										}
									}
								}
							}
						}
					}
				}
			}
		}
	}
}
MOTION
Frames: 10
Frame Time: 0.03333333
4.648949 97.362259 -4.734806 0.000000 0.000000 0.000000 2.770616 -53.851527 2.930432 -44.788020 0.566524 22.438536 44.002753 -2.900123 1.362655 -1.869437 -7.735945 -18.046617 -1.836430 -0.000624 -0.000036 0.000000 0.000000 0.000000 2.770616 -53.851527 2.930432 -39.234444 -21.700681 -39.314583 48.788284 7.344817 -3.464986 -14.137844 -2.277112 20.229799 -0.001650 -0.000382 0.000010 0.000000 0.000000 0.000000 2.770616 -53.851527 2.930432 8.793602 10.984963 -2.207979 3.497972 3.507880 -2.049954 0.000000 0.000000 0.000000 0.000000 0.000000 0.000000 3.552510 3.473948 -2.029869 1.529306 1.229500 6.799902 -2.678849 31.005726 -6.720908 0.000000 0.000000 0.000000 3.552510 3.473948 -2.029869 0.471071 -5.933834 -15.232039 0.000000 0.000000 0.000000 -16.907893 -33.002613 -20.091609 6.582956 -71.738918 6.768212 0.000000 0.000000 0.000000 3.552510 3.473948 -2.029869 -0.291999 14.898147 -21.620921 0.000000 0.000000 0.000000 -49.742406 22.304999 28.209721 -170.020962 81.192699 169.920599 0.000000 0.000000 0.000000 
4.874430 97.664795 -4.849575 0.000000 0.000000 0.000000 3.442897 -55.077020 3.526568 -44.715729 1.456389 23.016704 43.503630 -3.387472 1.324686 -1.699241 -6.944152 -17.932597 -1.836430 -0.000621 -0.000036 0.000000 0.000000 0.000000 3.442897 -55.077020 3.526568 -39.642008 -21.022137 -38.507838 48.380088 7.892667 -3.435466 -13.596582 -2.479631 19.765128 -0.001650 -0.000382 0.000010 0.000000 0.000000 0.000000 3.442897 -55.077020 3.526568 9.869829 11.869946 -3.635542 3.653227 3.854090 -2.359844 0.000000 0.000000 0.000000 0.000000 0.000000 0.000000 3.709202 3.818431 -2.343582 0.899340 1.122420 7.046564 -5.163759 30.506459 -5.717721 0.000000 0.000000 0.000000 3.709202 3.818431 -2.343582 0.197271 -6.582463 -15.090465 0.000000 0.000000 0.000000 -21.316551 -37.047035 -24.030006 -2.140455 -74.216521 -1.661857 0.000000 0.000000 0.000000 3.709202 3.818431 -2.343582 3.715120 19.150261 -15.155078 0.000000 0.000000 0.000000 -26.887866 25.917125 16.996466 -171.948715 72.846413 172.094170 0.000000 0.000000 0.000000 
5.037515 97.992638 -4.918083 0.000000 0.000000 0.000000 4.012721 -56.464750 3.886273 -44.449143 2.169369 23.776602 43.067761 -3.647990 1.302810 -1.656207 -6.191261 -17.956178 -1.836430 -0.000623 -0.000035 0.000000 0.000000 0.000000 4.012721 -56.464750 3.886273 -40.042797 -20.665605 -37.821630 47.780961 7.492998 -3.468306 -13.007427 -1.301697 19.651431 -0.001650 -0.000382 0.000010 0.000000 0.000000 0.000000 4.012721 -56.464750 3.886273 11.086853 12.605211 -4.836509 3.882953 4.155483 -2.595617 0.000000 0.000000 0.000000 0.000000 0.000000 0.000000 3.940177 4.114883 -2.582873 0.077768 1.097566 7.089563 -9.455424 30.205887 -4.759085 0.000000 0.000000 0.000000 3.940177 4.114883 -2.582873 0.273695 -7.175085 -13.814898 0.000000 0.000000 0.000000 -27.151307 -40.609310 -28.235269 -1.969243 -72.750148 -1.517578 0.000000 0.000000 0.000000 3.940177 4.114883 -2.582873 2.514158 21.233542 -6.811735 0.000000 0.000000 0.000000 -5.943691 30.749935 2.272444 -179.151982 73.423810 179.050131 0.000000 0.000000 0.000000 
5.343909 98.508804 -4.966595 0.000000 0.000000 0.000000 4.547487 -58.462034 4.130496 -43.845911 3.097890 24.787933 42.421338 -3.940357 1.277526 -1.589352 -5.060862 -17.992252 -1.836430 -0.000623 -0.000036 0.000000 0.000000 0.000000 4.547487 -58.462034 4.130496 -40.443483 -20.386252 -36.636838 46.888402 9.051348 -3.377021 -12.065672 -1.616431 18.665676 -0.001650 -0.000382 0.000010 0.000000 0.000000 0.000000 4.547487 -58.462034 4.130496 12.227818 12.425659 -5.908448 4.167031 4.169349 -2.813603 0.000000 0.000000 0.000000 0.000000 0.000000 0.000000 4.213588 4.134010 -2.809066 -0.982835 1.275622 6.943003 -12.696572 31.538801 -4.386470 0.000000 0.000000 0.000000 4.213588 4.134010 -2.809066 0.469997 -7.672753 -11.958913 0.000000 0.000000 0.000000 -32.668324 -40.481107 -29.999325 -2.290957 -72.441956 -1.843432 0.000000 0.000000 0.000000 4.213588 4.134010 -2.809066 1.947803 20.533126 -7.026575 0.000000 0.000000 0.000000 -2.633523 35.447497 2.378814 -179.601382 76.885418 179.927168 0.000000 0.000000 0.000000 
5.624094 99.333542 -4.962368 0.000000 0.000000 0.000000 5.032953 -61.559047 4.263945 -42.678946 4.823933 26.398971 41.405823 -4.661680 1.219781 -1.605549 -3.251670 -17.995660 -1.836430 -0.000621 -0.000035 0.000000 0.000000 0.000000 5.032953 -61.559047 4.263945 -40.352163 -19.739202 -34.712445 45.270460 9.664675 -3.352998 -10.705598 -0.714202 17.994191 -0.001650 -0.000382 0.000010 0.000000 0.000000 0.000000 5.032953 -61.559047 4.263945 12.492157 11.066079 -6.761982 4.071503 3.785680 -2.922037 0.000000 0.000000 0.000000 0.000000 0.000000 0.000000 4.105558 3.752687 -2.926244 -2.291783 1.801533 6.624466 -12.662419 35.436043 -3.804088 0.000000 0.000000 0.000000 4.105558 3.752687 -2.926244 0.769322 -8.061259 -9.661327 0.000000 0.000000 0.000000 -35.580720 -36.252749 -27.728300 -2.888415 -74.011226 -2.422958 0.000000 0.000000 0.000000 4.105558 3.752687 -2.926244 1.349247 19.460614 -7.778388 0.000000 0.000000 0.000000 -5.538160 40.693929 0.917271 -176.327207 82.905410 177.423098 0.000000 0.000000 0.000000 
5.753083 100.602661 -4.823990 0.000000 0.000000 0.000000 4.908802 -65.967893 3.629144 -40.641777 7.689285 28.826130 39.842020 -5.919392 1.122366 -1.765555 -0.785052 -17.941992 -1.836430 -0.000623 -0.000036 0.000000 0.000000 0.000000 4.908802 -65.967893 3.629144 -39.099397 -18.771202 -31.589020 42.591458 10.313435 -3.333374 -8.864646 0.354319 17.320282 -0.001650 -0.000382 0.000010 0.000000 0.000000 0.000000 4.908802 -65.967893 3.629144 12.284018 9.163296 -7.363568 3.818991 3.218615 -2.814560 0.000000 0.000000 0.000000 0.000000 0.000000 0.000000 3.838659 3.190995 -2.826184 -3.681312 2.556714 6.152037 -10.484154 41.386066 -3.487235 0.000000 0.000000 0.000000 3.838659 3.190995 -2.826184 1.073173 -8.213355 -7.406992 0.000000 0.000000 0.000000 -36.310966 -28.793086 -22.416831 -3.543918 -77.006572 -3.053635 0.000000 0.000000 0.000000 3.838659 3.190995 -2.826184 0.960425 18.282396 -8.811840 0.000000 0.000000 0.000000 -12.435247 48.460691 5.387415 -116.739298 88.443921 118.661518 0.000000 0.000000 0.000000 
5.766052 102.066994 -4.552277 0.000000 0.000000 0.000000 4.125618 -70.751983 2.345765 -38.243786 11.165661 31.394565 37.859851 -6.023100 1.107180 -1.934981 0.500435 -18.124272 -1.836430 -0.000621 -0.000035 0.000000 0.000000 0.000000 4.125618 -70.751983 2.345765 -37.205410 -17.689389 -28.232761 39.271808 10.865818 -3.319640 -6.802042 1.617819 16.818318 -0.001650 -0.000382 0.000010 0.000000 0.000000 0.000000 4.125618 -70.751983 2.345765 11.827670 7.294029 -7.688944 3.563441 2.643101 -2.617959 0.000000 0.000000 0.000000 0.000000 0.000000 0.000000 3.570615 2.623557 -2.632248 -5.066359 3.385449 5.580527 -7.940836 47.738750 -3.503790 0.000000 0.000000 0.000000 3.570615 2.623557 -2.632248 1.385354 -7.833348 -4.442708 0.000000 0.000000 0.000000 -36.623464 -20.714137 -15.962309 -7.062462 -77.438608 -6.538406 0.000000 0.000000 0.000000 3.570615 2.623557 -2.632248 0.703808 17.146230 -9.993528 0.000000 0.000000 0.000000 -22.582702 55.357331 13.382698 53.761618 85.220981 -51.601536 0.000000 0.000000 0.000000 
5.677429 103.633263 -4.096569 0.000000 0.000000 0.000000 2.463246 -75.358789 0.290577 -35.780588 15.066444 33.422663 35.578052 -7.120141 1.022797 -2.034960 2.700167 -18.020829 -1.836430 -0.000622 -0.000036 0.000000 0.000000 0.000000 2.463246 -75.358789 0.290577 -34.903885 -16.605469 -25.205459 35.413902 10.878891 -3.339972 -4.644793 3.422582 16.690262 -0.001650 -0.000382 0.000010 0.000000 0.000000 0.000000 2.463246 -75.358789 0.290577 11.379307 5.981294 -7.845974 3.390039 2.236862 -2.367837 0.000000 0.000000 0.000000 0.000000 0.000000 0.000000 3.388103 2.227138 -2.380069 -6.391434 4.101094 4.952931 -6.109280 53.240348 -3.535153 0.000000 0.000000 0.000000 3.388103 2.227138 -2.380069 1.504779 -7.319272 -1.091528 0.000000 0.000000 0.000000 -36.798167 -13.076769 -10.470996 -2.305803 -75.543545 -1.852750 0.000000 0.000000 0.000000 3.388103 2.227138 -2.380069 0.500774 15.551227 -11.217016 0.000000 0.000000 0.000000 -34.141257 60.694379 22.601511 28.449621 83.726672 -26.141427 0.000000 0.000000 0.000000 
5.558033 105.110405 -3.529686 0.000000 0.000000 0.000000 0.164667 -79.300825 -2.358939 -33.707503 18.805097 34.880017 33.277238 -8.196923 0.941741 -2.033488 4.655839 -17.821840 -1.836430 -0.000621 -0.000036 0.000000 0.000000 0.000000 0.164667 -79.300825 -2.358939 -32.649178 -15.701237 -22.831159 31.359000 9.619501 -3.446237 -2.588760 6.394949 17.011117 -0.001650 -0.000382 0.000010 0.000000 0.000000 0.000000 0.164667 -79.300825 -2.358939 11.015747 4.817538 -7.850239 3.274535 1.864931 -2.086597 0.000000 0.000000 0.000000 0.000000 0.000000 0.000000 3.269262 1.866182 -2.095330 -7.626987 4.751801 4.366134 -5.761663 57.956853 -3.285006 0.000000 0.000000 0.000000 3.269262 1.866182 -2.095330 1.534503 -6.754534 2.308599 0.000000 0.000000 0.000000 -37.302470 -6.115483 -6.246766 -6.356528 -71.412367 -5.733831 0.000000 0.000000 0.000000 3.269262 1.866182 -2.095330 0.067029 13.696499 -12.349522 0.000000 0.000000 0.000000 -45.549285 63.689274 31.575893 19.740889 83.571019 -17.243091 0.000000 0.000000 0.000000 
5.400024 106.253304 -2.991055 0.000000 0.000000 0.000000 -0.213350 -82.409866 -2.919073 -32.549010 22.042656 35.891261 31.330170 -8.087928 0.947052 -1.981906 5.081903 -17.809580 -1.836430 -0.000623 -0.000035 0.000000 0.000000 0.000000 -0.213350 -82.409866 -2.919073 -31.253368 -14.922667 -21.127853 28.020593 9.348143 -3.494023 -0.888606 8.090556 17.149630 -0.001650 -0.000382 0.000010 0.000000 0.000000 0.000000 -0.213350 -82.409866 -2.919073 10.168374 3.316029 -7.709918 3.178937 1.369662 -1.799416 0.000000 0.000000 0.000000 0.000000 0.000000 0.000000 3.172768 1.383096 -1.805358 -8.733123 5.311361 3.915068 -5.123204 62.501224 -3.697891 0.000000 0.000000 0.000000 3.172768 1.383096 -1.805358 1.598574 -6.173517 5.412498 0.000000 0.000000 0.000000 -37.551543 0.323832 -3.187798 4.736829 -65.325323 4.959639 0.000000 0.000000 0.000000 3.172768 1.383096 -1.805358 -0.673501 10.426767 -13.362246 0.000000 0.000000 0.000000 -59.226271 65.532441 43.887661 11.734275 84.671963 -9.051207 0.000000 0.000000 0.000000 
